<?xml version="1.0" standalone="no"?>
<!DOCTYPE svg PUBLIC "-//W3C//DTD SVG 20010904//EN"
 "http://www.w3.org/TR/2001/REC-SVG-20010904/DTD/svg10.dtd">
<svg version="1.0" xmlns="http://www.w3.org/2000/svg"
 width="2000.000000pt" height="2000.000000pt" viewBox="0 0 2000.000000 2000.000000"
 preserveAspectRatio="xMidYMid meet">
<metadata>
Created by potrace 1.14, written by Peter Selinger 2001-2017
</metadata>
<g transform="translate(0.000000,2000.000000) scale(0.100000,-0.100000)"
fill="#000000" stroke="none">
<path d="M0 13894 l0 -6106 39 34 c21 18 116 102 211 186 649 578 1381 1115
2160 1584 355 214 594 345 1035 563 l409 204 39 -147 c222 -860 601 -1740
1080 -2515 37 -59 67 -109 67 -111 0 -2 -26 3 -57 11 -99 27 -198 21 -385 -25
-189 -46 -234 -66 -368 -163 -130 -93 -133 -96 -125 -108 3 -6 -5 -15 -19 -21
-14 -5 -26 -12 -26 -15 0 -4 5 -3 11 1 8 4 9 -1 4 -17 -4 -13 -12 -27 -18 -31
-6 -3 71 -7 171 -8 159 -1 181 1 176 15 -4 9 -1 15 7 15 11 0 11 3 -1 11 -12
9 -12 10 3 5 11 -3 24 -3 30 1 7 4 18 8 27 9 8 1 35 10 60 19 98 37 408 87
394 63 -2 -3 6 -8 18 -11 13 -2 -13 -2 -57 0 -62 4 -107 -1 -197 -21 -65 -14
-135 -33 -155 -41 -21 -9 -40 -17 -43 -17 -3 -1 -11 -8 -19 -15 -7 -8 -20 -12
-27 -9 -7 3 -16 0 -20 -6 -5 -7 -2 -8 7 -4 8 4 3 -2 -11 -13 -14 -11 -31 -19
-37 -16 -7 2 -12 1 -10 -3 1 -5 -26 -34 -60 -66 -157 -145 -225 -295 -273
-596 -6 -41 -24 -147 -40 -235 -16 -88 -59 -333 -95 -545 -36 -212 -83 -488
-106 -615 -22 -126 -40 -264 -41 -305 -1 -77 23 -201 50 -255 36 -72 118 -157
187 -192 34 -18 161 -43 217 -43 63 0 195 32 257 62 39 19 49 20 93 9 113 -26
243 2 345 75 l62 45 41 -26 c61 -39 220 -79 310 -78 78 0 229 32 315 65 28 11
83 42 123 70 l73 49 34 -25 c18 -14 68 -35 112 -47 75 -21 84 -21 243 -9 264
20 435 70 557 161 l41 31 46 -31 c54 -38 185 -73 268 -72 96 0 298 20 381 38
49 10 100 29 134 50 l56 33 41 -19 c58 -28 206 -61 274 -61 60 0 227 37 303
66 56 22 165 92 217 139 l41 36 73 -51 c59 -41 91 -55 172 -75 125 -32 207
-32 345 -1 118 27 160 43 239 95 l53 34 38 -21 c21 -12 75 -30 119 -41 73 -17
88 -18 144 -6 95 20 143 39 204 81 46 32 58 36 72 26 33 -24 78 -40 150 -55
67 -14 80 -14 161 3 98 20 114 27 184 78 106 77 166 205 167 353 0 63 -25 513
-34 624 -3 28 -10 154 -17 280 l-12 230 66 145 c36 80 118 260 183 400 108
237 161 382 165 455 l1 30 8 -32 c5 -22 1 -59 -11 -110 -36 -149 -70 -377 -71
-472 0 -179 55 -368 161 -547 l30 -51 -60 -13 c-105 -22 -216 -115 -272 -225
-22 -44 -43 -129 -73 -301 -34 -191 -35 -273 -5 -392 50 -198 178 -325 383
-378 126 -32 208 -31 350 5 133 34 174 52 285 132 l81 59 57 -35 c72 -43 205
-75 311 -75 120 0 394 27 465 45 35 9 82 27 104 40 34 19 43 21 60 10 28 -19
175 -55 222 -55 56 0 201 37 255 65 46 24 48 24 115 9 65 -14 74 -14 163 5 55
12 110 31 132 46 44 29 51 30 81 11 31 -20 156 -46 219 -46 67 0 212 35 257
61 32 19 40 20 96 9 33 -7 76 -12 95 -11 58 2 179 38 219 64 l38 25 69 -19
c78 -22 147 -23 319 -8 224 19 359 59 476 141 101 69 160 128 224 223 97 144
97 144 245 995 69 394 117 657 130 720 l9 45 -5 -50 c-12 -117 -13 -139 -6
-130 14 19 32 15 32 -8 0 -18 -2 -19 -11 -7 -9 13 -10 13 -6 0 3 -12 23 -16
88 -18 70 -2 86 0 96 14 12 17 13 17 13 0 0 -11 6 -16 17 -14 13 2 23 39 50
188 45 245 45 299 4 480 -39 168 -42 174 -133 301 -58 83 -83 107 -166 166
-53 38 -106 75 -117 80 -41 22 -340 85 -405 85 -114 1 -321 -23 -442 -52 -65
-15 -118 -26 -118 -25 0 2 32 70 71 151 250 526 428 1007 574 1549 29 110 61
235 71 278 10 42 21 77 25 77 4 0 63 -25 131 -56 68 -31 170 -77 228 -104 305
-138 786 -387 1130 -585 897 -516 1809 -1179 2537 -1842 61 -57 114 -103 117
-103 3 0 6 2745 6 6100 l0 6100 -10000 0 -10000 0 0 -6106z m6559 3439 c-688
-827 -1186 -1707 -1343 -2373 -14 -58 -32 -152 -40 -209 l-15 -104 35 -39 c78
-87 164 -244 194 -356 l11 -43 -71 -94 c-104 -138 -184 -269 -278 -455 -46
-91 -81 -154 -78 -140 30 138 36 282 13 326 -32 62 -174 181 -370 308 -64 42
-117 83 -117 90 0 8 21 79 46 158 276 861 851 1765 1682 2643 129 135 447 445
459 445 1 0 -56 -71 -128 -157z m3352 -586 c11 -187 11 -269 0 -450 -17 -304
-18 -308 -52 -516 -92 -559 -301 -1126 -599 -1621 -93 -155 -217 -335 -307
-443 l-61 -74 -54 9 c-142 24 -413 -36 -703 -156 -116 -48 -368 -172 -467
-229 -43 -25 -78 -40 -78 -33 0 6 34 148 76 316 42 168 88 354 103 413 l27
108 84 49 c256 148 497 205 640 151 67 -26 58 -31 221 130 552 544 937 1247
1078 1969 36 179 51 317 58 520 9 228 14 204 34 -143z m1553 -99 c-4 -7 -33
-51 -64 -98 -239 -359 -352 -649 -296 -758 44 -85 101 -74 429 84 658 316
1126 458 1777 539 173 22 430 44 430 38 0 -1 -73 -100 -163 -220 -287 -383
-502 -692 -526 -756 -18 -48 6 -51 286 -38 658 30 1164 -4 1703 -114 453 -92
966 -274 1352 -477 l96 -52 -161 -68 c-177 -75 -590 -276 -730 -355 l-89 -50
-96 42 c-488 214 -1541 467 -2396 575 -235 30 -316 75 -316 174 0 43 21 97 55
142 l24 32 -22 5 c-63 16 -488 29 -732 24 -373 -9 -563 -31 -838 -97 -239 -58
-411 -60 -525 -4 -101 49 -127 113 -126 314 1 157 24 279 85 460 24 71 35 118
29 124 -5 5 -70 11 -143 14 -148 5 -253 -11 -361 -53 l-61 -25 50 47 c108 100
359 246 582 339 127 53 326 119 493 164 244 65 267 69 254 48z m-2326 -295
c-325 -384 -565 -802 -585 -1018 l-6 -64 -82 -35 c-185 -80 -299 -71 -337 24
-17 43 -10 146 12 189 79 156 400 452 945 874 66 50 76 56 53 30z m-1163 -397
c-184 -287 -350 -563 -440 -733 l-70 -132 -95 -35 c-188 -70 -303 -85 -354
-45 -48 38 -28 106 69 239 63 86 344 365 525 522 167 144 503 418 508 414 1
-2 -63 -105 -143 -230z m-1016 -333 c-8 -10 -59 -71 -114 -138 -225 -269 -421
-552 -524 -754 -60 -118 -111 -260 -111 -309 0 -30 6 -26 -199 -138 -149 -81
-247 -122 -261 -108 -13 13 39 166 93 273 160 317 504 696 976 1073 80 65 148
118 150 118 2 0 -3 -8 -10 -17z m3356 -1760 c-78 -119 -173 -232 -310 -369
-362 -363 -829 -656 -1413 -888 -122 -49 -200 -75 -212 -71 -46 15 -40 115 13
226 37 76 125 215 204 322 51 68 71 87 85 84 32 -9 159 14 258 45 266 85 780
342 1270 635 74 45 137 79 139 77 2 -2 -13 -30 -34 -61z m4935 -1318 c202
-101 452 -257 574 -358 l29 -24 -164 -21 c-90 -11 -242 -31 -338 -43 l-173
-22 -102 49 c-55 27 -103 50 -105 51 -2 1 23 85 57 185 33 101 63 198 67 216
4 17 11 32 16 32 5 0 68 -29 139 -65z m-10855 -32 c-5 -10 -19 -49 -33 -86
-22 -61 -24 -71 -11 -94 18 -33 82 -75 170 -109 38 -15 69 -29 69 -31 0 -2
-18 -28 -40 -58 -28 -38 -48 -55 -63 -55 -12 0 -89 9 -172 19 -82 11 -228 30
-324 42 l-174 22 34 29 c96 80 509 338 542 338 5 0 6 -8 2 -17z m1725 -137 c0
-121 -61 -222 -149 -246 -23 -6 -45 -9 -48 -6 -7 6 119 238 154 284 13 18 29
30 34 27 5 -4 9 -30 9 -59z m816 -1472 c10 -39 -4 -116 -26 -146 -16 -22 -18
-32 -10 -53 14 -36 -15 -100 -73 -162 l-44 -48 -5 -92 c-7 -115 -36 -183 -84
-197 -27 -8 -34 -18 -49 -65 -23 -74 -60 -146 -83 -163 -11 -7 -25 -31 -32
-53 -21 -65 -49 -114 -75 -131 -23 -15 -27 -15 -50 0 -24 15 -55 66 -69 112
-6 20 -2 22 66 26 41 3 88 12 107 22 l33 18 -20 21 c-11 12 -34 51 -51 87
l-31 65 62 7 c66 8 148 34 148 48 0 4 -11 10 -23 14 -52 13 -106 80 -131 164
-7 20 -4 22 27 22 55 0 247 76 247 98 0 4 -23 44 -50 90 -28 46 -50 87 -50 91
0 4 46 18 103 31 56 12 104 24 106 26 2 2 -27 37 -64 79 -37 41 -66 77 -64 79
5 5 138 34 161 35 11 1 20 -9 24 -25z m-898 -1177 c11 -24 45 -74 76 -110 56
-66 56 -67 29 -67 -46 1 -116 20 -135 37 -10 9 -18 28 -18 43 0 28 21 140 26
140 2 0 12 -20 22 -43z m236 -27 c21 -7 55 -9 77 -6 33 5 39 3 39 -11 0 -32
-46 -94 -91 -125 l-44 -29 -22 26 c-24 28 -48 97 -59 172 l-6 48 33 -31 c19
-18 51 -37 73 -44z m-324 -74 c-7 -7 -15 -6 -25 5 -14 14 -13 21 7 70 l23 54
3 -59 c2 -32 -2 -64 -8 -70z m9865 -1680 c22 -9 57 -34 78 -54 95 -91 106
-182 57 -452 -32 -178 -139 -797 -211 -1215 -21 -126 -46 -252 -55 -280 -53
-168 -207 -315 -375 -359 -67 -17 -376 -41 -412 -32 -15 3 -36 16 -47 28 -36
39 -42 -5 165 1183 42 242 101 579 131 750 59 343 68 367 147 408 81 42 440
58 522 23z m-1009 -53 c70 -24 147 -103 168 -173 24 -81 20 -129 -34 -434 -27
-155 -63 -360 -79 -456 -37 -216 -107 -622 -167 -960 -36 -205 -50 -262 -70
-292 -48 -75 -169 -104 -219 -53 -29 28 -32 64 -10 125 31 88 5 98 -39 14 -40
-77 -119 -160 -180 -191 -60 -30 -156 -41 -209 -24 -45 15 -92 68 -106 118
-19 68 -12 136 54 525 84 490 102 547 196 639 128 124 325 117 387 -15 12 -25
25 -63 28 -85 5 -31 11 -41 25 -41 17 0 19 9 19 94 0 135 15 256 69 566 53
302 53 318 -1 346 -38 20 -80 12 -125 -22 -48 -36 -59 -67 -88 -244 -34 -201
-63 -250 -165 -276 -70 -18 -118 -3 -144 47 -19 36 -19 36 8 195 46 271 86
366 198 470 129 122 338 177 484 127z m-814 -73 c48 -14 68 -43 68 -100 0 -26
-25 -188 -55 -361 -30 -173 -75 -433 -100 -579 -25 -146 -65 -377 -90 -515
-24 -137 -60 -344 -80 -460 -44 -259 -57 -303 -92 -337 -42 -39 -66 -48 -127
-48 -47 0 -57 4 -75 26 -22 28 -27 67 -12 106 36 98 9 107 -43 14 -85 -153
-239 -240 -363 -207 -90 25 -132 90 -133 209 0 64 47 368 110 712 24 129 137
782 190 1095 47 275 52 296 91 340 61 69 179 85 226 30 32 -36 30 -69 -21
-365 -120 -689 -209 -1204 -241 -1385 -44 -246 -45 -268 -14 -302 20 -21 31
-24 66 -20 52 6 104 43 127 91 9 20 41 177 71 349 29 171 85 494 124 717 161
926 152 884 188 926 31 37 76 60 143 73 3 0 22 -4 42 -9z m-1160 -96 c69 -20
138 -76 170 -138 32 -61 35 -174 9 -311 -11 -60 -52 -292 -90 -515 -159 -917
-149 -874 -216 -974 -38 -58 -67 -83 -144 -126 -75 -43 -67 -51 49 -48 101 3
102 3 126 -25 54 -63 14 -185 -76 -232 -26 -13 -342 -45 -449 -45 -94 0 -157
24 -216 83 -98 99 -101 169 -22 617 30 173 85 486 121 695 122 704 123 711
205 818 127 169 349 252 533 201z m-910 -74 c62 -18 129 -70 161 -127 44 -81
46 -165 8 -380 -16 -95 -37 -185 -45 -201 -49 -94 -196 -133 -253 -67 -30 34
-29 69 2 255 27 160 25 185 -17 214 -45 32 -120 9 -165 -50 -54 -72 -82 -381
-45 -501 10 -32 62 -134 116 -227 180 -309 203 -378 193 -575 -7 -129 -48
-376 -73 -443 -28 -72 -104 -177 -157 -220 -222 -175 -512 -169 -612 13 -42
78 -45 169 -11 369 15 85 32 169 38 185 31 79 98 125 182 125 39 0 53 -5 77
-29 37 -37 37 -59 2 -258 -30 -173 -27 -194 31 -218 44 -19 89 -6 133 37 41
40 48 60 74 238 35 244 24 289 -154 599 -65 113 -124 228 -132 255 -42 141
-42 251 0 500 18 109 31 154 61 215 66 134 201 247 344 287 56 15 192 17 242
4z m-885 -102 c-3 -8 -6 -5 -6 6 -1 11 2 17 5 13 3 -3 4 -12 1 -19z m-279 -34
c14 -16 22 -38 22 -59 0 -23 -69 -190 -206 -497 l-206 -463 21 -355 c12 -195
26 -411 31 -480 5 -69 12 -188 16 -265 6 -136 5 -141 -17 -174 -38 -55 -72
-74 -137 -79 -99 -7 -127 22 -136 138 -4 41 -15 251 -26 465 -11 215 -22 395
-24 401 -3 6 -15 9 -28 7 -22 -4 -25 -14 -47 -141 -102 -612 -140 -805 -165
-842 -31 -47 -97 -80 -160 -80 -39 0 -53 5 -77 29 -39 40 -38 55 20 387 28
154 72 410 100 569 27 160 68 396 91 525 22 129 61 352 86 495 26 152 53 277
65 301 27 58 86 96 154 102 52 4 56 3 90 -31 23 -23 35 -44 35 -62 0 -25 -24
-173 -55 -335 -14 -72 -119 -525 -131 -563 -4 -14 -1 -18 11 -15 17 3 42 58
286 638 155 367 164 381 256 406 61 16 102 9 131 -22z m5479 4 c-3 -7 -5 -2
-5 12 0 14 2 19 5 13 2 -7 2 -19 0 -25z m-5190 -20 c-3 -8 -6 -5 -6 6 -1 11 2
17 5 13 3 -3 4 -12 1 -19z m-3032 -33 c-16 -13 -34 -24 -39 -25 -6 0 5 11 24
25 44 32 54 32 15 0z m-1167 8 c-21 -2 -55 -2 -75 0 -21 2 -4 4 37 4 41 0 58
-2 38 -4z m362 -11 c-13 -9 -40 -30 -60 -47 -19 -16 -28 -21 -20 -11 16 21 89
76 99 75 3 0 -5 -8 -19 -17z m9017 -19 c-3 -10 -5 -4 -5 12 0 17 2 24 5 18 2
-7 2 -21 0 -30z m-9549 20 c-16 -2 -40 -2 -55 0 -16 2 -3 4 27 4 30 0 43 -2
28 -4z m249 1 c-3 -3 -12 -4 -19 -1 -8 3 -5 6 6 6 11 1 17 -2 13 -5z m2694
-11 c38 -12 70 -33 106 -68 65 -63 87 -131 80 -239 -7 -112 -84 -535 -105
-575 -28 -53 -90 -93 -155 -99 -46 -4 -57 -1 -84 22 -17 14 -33 38 -36 53 -3
16 14 144 38 287 40 235 43 261 30 286 -9 17 -29 33 -50 40 -31 10 -41 9 -83
-12 -72 -35 -82 -63 -136 -373 -26 -148 -78 -448 -115 -665 -38 -217 -82 -470
-97 -562 l-29 -167 21 -28 c32 -42 73 -50 126 -24 80 39 83 50 162 515 25 146
83 206 200 206 48 0 57 -3 80 -31 34 -41 34 -58 -14 -339 -44 -255 -56 -304
-104 -395 -153 -294 -607 -374 -735 -130 -46 89 -42 162 33 595 36 206 81 467
101 580 137 789 136 786 197 888 114 188 376 297 569 235z m-3076 0 c-22 -2
-71 -10 -109 -19 -38 -8 -70 -13 -73 -10 -8 8 123 34 172 33 43 0 45 -1 10 -4z
m455 -3 c20 -6 21 -8 5 -8 -11 0 -31 4 -45 8 -20 6 -21 8 -5 8 11 0 31 -4 45
-8z m70 -20 c18 -12 2 -12 -25 0 -13 6 -15 9 -5 9 8 0 22 -4 30 -9z m-1217 -7
c-13 -2 -33 -2 -45 0 -13 2 -3 4 22 4 25 0 35 -2 23 -4z m-118 -13 c-16 -4
-39 -8 -50 -8 -16 0 -15 2 5 8 14 4 36 8 50 8 22 0 22 -1 -5 -8z m225 0 c20
-6 21 -8 5 -8 -11 0 -33 4 -50 8 -27 7 -27 8 -5 8 14 0 36 -4 50 -8z m360 -4
c0 -2 -8 -10 -17 -17 -16 -13 -17 -12 -4 4 13 16 21 21 21 13z m-663 -12 c-3
-3 -12 -4 -19 -1 -8 3 -5 6 6 6 11 1 17 -2 13 -5z m360 0 c-3 -3 -12 -4 -19
-1 -8 3 -5 6 6 6 11 1 17 -2 13 -5z m263 -18 c0 -12 -100 -74 -105 -66 -4 6
-23 19 -43 30 -20 10 -32 19 -26 20 6 0 27 -10 45 -23 l34 -23 45 33 c47 34
50 36 50 29z m2367 -9 c104 -39 171 -131 180 -249 5 -62 -28 -277 -142 -913
-19 -104 -57 -325 -85 -490 -28 -165 -58 -329 -66 -364 -43 -189 -179 -340
-362 -403 -94 -32 -226 -32 -297 0 -92 42 -142 107 -164 214 -11 53 -8 81 39
360 28 167 62 364 75 438 14 74 56 320 95 545 39 226 77 436 85 467 45 179
189 333 364 389 65 21 228 24 278 6z m-821 -45 l15 -36 25 29 c28 33 22 19
-13 -33 l-22 -33 -11 43 c-6 24 -15 51 -21 62 -7 13 -7 16 0 11 6 -3 18 -23
27 -43z m-2709 -29 c35 -13 67 -22 73 -18 6 3 7 0 4 -9 -5 -12 1 -15 30 -12
20 1 36 -2 37 -8 0 -6 3 -5 6 2 7 17 23 15 39 -5 13 -17 14 -17 7 1 -4 12 -3
17 4 13 9 -5 80 35 93 53 3 4 16 11 30 15 14 4 -10 -18 -53 -49 -43 -31 -84
-53 -90 -50 -7 4 -9 3 -4 -1 4 -5 0 -16 -9 -26 -15 -17 -18 -17 -40 -2 -13 8
-21 20 -17 26 3 5 2 7 -4 4 -5 -4 -29 8 -53 25 -25 19 -77 42 -124 55 -56 16
-67 21 -36 17 25 -3 73 -17 107 -31z m11311 -23 c-7 -11 -17 -20 -22 -20 -5 0
-1 9 9 20 10 11 20 20 22 20 2 0 -2 -9 -9 -20z m-8898 -15 c53 -28 55 -59 16
-282 -45 -251 -113 -645 -177 -1018 -27 -159 -65 -376 -84 -482 -41 -225 -43
-258 -16 -273 13 -6 66 -8 150 -4 l130 7 32 -32 c30 -31 31 -35 26 -89 -7 -65
-44 -125 -94 -155 -34 -20 -253 -46 -383 -46 -115 -1 -181 47 -199 145 -10 50
-11 40 144 929 42 242 106 608 141 813 35 205 70 385 78 400 18 35 64 78 96
91 38 15 107 13 140 -4z m8911 -22 c-8 -15 -10 -15 -11 -2 0 17 10 32 18 25 2
-3 -1 -13 -7 -23z m-9474 -61 c87 -46 134 -118 149 -232 4 -30 -6 -119 -31
-270 -52 -315 -84 -399 -184 -494 -46 -42 -80 -61 -183 -104 -52 -21 -37 -33
57 -46 52 -7 113 -51 139 -101 15 -30 20 -58 20 -115 0 -89 -86 -577 -115
-655 -65 -175 -221 -306 -403 -340 -39 -8 -135 -19 -214 -25 -161 -14 -192 -8
-217 41 -21 40 -20 52 29 332 25 139 59 333 76 432 17 99 58 333 90 520 179
1032 167 978 226 1024 52 41 186 61 394 57 107 -1 131 -5 167 -24z m-1006 -47
c93 -33 149 -104 169 -212 12 -70 6 -124 -61 -503 -22 -124 -73 -418 -114
-655 -117 -676 -120 -690 -159 -770 -66 -134 -199 -243 -341 -280 -85 -22
-202 -20 -267 5 -62 23 -129 86 -153 143 -34 83 -31 140 35 512 130 744 170
977 205 1180 31 181 41 221 74 290 79 166 218 273 399 305 60 11 158 4 213
-15z m-994 -70 c114 -34 185 -139 186 -275 1 -115 -51 -392 -82 -441 -53 -82
-179 -113 -236 -59 -37 34 -38 65 -10 227 35 207 33 222 -24 252 -49 26 -132
-14 -167 -81 -8 -16 -39 -170 -69 -341 -29 -172 -90 -523 -135 -782 -91 -516
-98 -572 -80 -604 15 -28 55 -44 93 -35 36 8 101 65 116 102 8 19 121 633 121
657 0 1 -14 5 -32 9 -51 10 -68 32 -68 89 0 63 29 125 73 154 35 24 134 42
230 43 51 0 62 -4 88 -29 40 -40 39 -62 -22 -407 -28 -159 -68 -391 -89 -516
-44 -257 -58 -294 -123 -333 -116 -67 -221 2 -178 117 35 96 11 106 -38 15
-49 -89 -132 -169 -204 -195 -121 -46 -231 -18 -275 69 -33 65 -31 161 7 369
17 91 64 361 106 600 41 239 97 564 125 722 27 157 59 310 70 340 29 76 104
181 162 228 58 46 136 86 205 105 66 18 189 18 250 0z"/>
<path d="M15525 7663 c-27 -2 -53 -7 -57 -11 -3 -4 -20 -88 -37 -187 -17 -99
-67 -387 -111 -640 -85 -488 -160 -920 -163 -945 -3 -24 117 -14 167 13 65 36
75 63 127 366 85 497 208 1205 219 1260 14 75 13 87 -12 115 -25 27 -58 34
-133 29z"/>
<path d="M14354 6520 c-30 -12 -81 -74 -88 -107 -20 -96 -96 -552 -96 -579 0
-17 9 -42 19 -55 42 -52 152 -15 193 64 23 46 108 508 108 590 0 79 -60 118
-136 87z"/>
<path d="M12558 7405 c-58 -40 -47 9 -197 -860 -28 -159 -71 -407 -96 -549
-58 -332 -58 -344 -3 -372 58 -30 131 3 168 77 12 23 35 123 56 246 19 114 55
321 79 458 161 920 167 953 151 984 -9 16 -23 31 -31 35 -36 14 -91 5 -127
-19z"/>
<path d="M8370 7058 c-72 -49 -65 -20 -210 -863 -29 -165 -74 -428 -101 -583
-27 -156 -49 -295 -49 -308 0 -64 90 -95 158 -54 66 41 65 36 166 625 30 176
87 501 125 723 50 286 67 410 61 427 -21 55 -93 71 -150 33z"/>
<path d="M5260 7214 c0 -8 5 -12 10 -9 6 4 8 11 5 16 -9 14 -15 11 -15 -7z"/>
<path d="M6638 6893 c-23 -4 -28 -11 -37 -56 -19 -90 -101 -570 -107 -624 l-7
-52 39 5 c114 17 167 57 197 150 20 60 87 445 87 497 0 57 -35 87 -97 86 -26
-1 -60 -4 -75 -6z"/>
<path d="M6435 5878 c-4 -12 -135 -763 -135 -776 0 -10 135 10 167 25 63 29
71 53 124 344 27 149 49 282 49 295 0 42 -27 92 -59 108 -37 19 -140 22 -146
4z"/>
<path d="M5674 6821 c-62 -38 -69 -61 -138 -466 -36 -209 -100 -575 -141 -813
-41 -238 -75 -448 -75 -468 0 -75 74 -106 151 -62 71 40 63 5 224 943 20 116
59 336 86 490 27 153 49 294 49 313 0 72 -85 106 -156 63z"/>
<path d="M16433 7178 c-2 -16 1 -18 10 -9 7 7 8 14 1 21 -6 6 -10 2 -11 -12z"/>
<path d="M3773 7123 c-4 -10 -9 -20 -13 -23 -3 -3 -13 -18 -23 -35 l-18 -30
26 30 c14 17 23 22 19 13 -9 -25 0 -22 33 8 l28 27 -25 -8 c-20 -6 -23 -5 -12
6 15 16 16 29 2 29 -6 0 -14 -8 -17 -17z"/>
<path d="M12735 4819 c-83 -22 -164 -33 -330 -46 l-221 -17 -149 33 -150 33
-75 -40 c-54 -29 -120 -52 -240 -82 -241 -61 -269 -61 -475 -10 -175 43 -207
55 -262 96 l-32 24 -103 -74 c-108 -77 -117 -81 -291 -121 -131 -30 -152 -31
-262 -5 -58 14 -92 17 -104 11 -26 -14 -309 -81 -342 -81 -17 0 -68 10 -114
21 -71 18 -89 19 -117 9 -18 -7 -50 -19 -71 -26 -70 -26 -345 -84 -398 -84
-51 0 -358 63 -390 80 -11 6 -27 1 -53 -16 -60 -41 -111 -60 -286 -105 -202
-52 -294 -56 -434 -18 l-89 24 -131 -33 c-95 -24 -183 -37 -322 -49 l-191 -17
-127 29 c-113 25 -130 27 -165 15 -32 -10 -40 -18 -45 -44 -3 -17 -42 -344
-86 -726 -44 -382 -85 -739 -92 -793 -6 -53 -8 -100 -5 -104 4 -3 229 8 499
25 1902 123 3728 240 4563 292 539 34 989 65 1000 70 18 7 26 47 83 416 157
1017 201 1319 194 1325 -20 18 -86 14 -187 -12z m-625 -292 c48 -17 80 -67 80
-128 0 -27 -30 -218 -66 -426 -54 -312 -70 -387 -92 -427 -46 -85 -111 -120
-239 -131 -92 -8 -128 -3 -137 21 -7 18 159 992 176 1037 14 36 39 49 113 57
91 11 127 10 165 -3z m-586 -56 c17 -18 14 -40 -62 -473 -43 -249 -77 -459
-74 -467 4 -10 19 -12 63 -7 36 4 66 3 79 -4 28 -15 27 -71 -3 -106 -20 -23
-33 -27 -120 -36 -109 -10 -140 -2 -166 43 -14 24 -8 65 67 505 46 264 89 494
97 512 23 51 87 68 119 33z m-342 -42 c38 -20 58 -60 58 -118 0 -75 -35 -272
-55 -316 -22 -46 -71 -92 -112 -107 -38 -14 -43 -28 -10 -28 34 0 64 -26 77
-65 9 -28 7 -62 -15 -192 -34 -202 -41 -229 -68 -248 -28 -20 -81 -19 -98 1
-11 14 -9 43 14 183 15 91 28 178 27 193 0 34 -24 58 -58 58 l-27 0 -37 -211
c-43 -248 -52 -266 -140 -260 -44 3 -42 23 47 539 47 273 90 508 96 522 14 38
45 52 129 60 79 8 143 4 172 -11z m-542 -27 c39 -21 70 -72 70 -116 0 -66
-141 -832 -161 -873 -59 -122 -232 -180 -319 -106 -60 50 -59 56 20 512 39
228 77 428 84 446 50 119 206 189 306 137z m-402 -73 c1 -13 -53 -251 -122
-528 -96 -387 -130 -509 -146 -526 -16 -17 -38 -25 -80 -30 -69 -8 -97 -1
-105 25 -12 36 39 591 71 775 3 21 2 25 -4 15 -5 -8 -24 -82 -41 -165 -38
-177 -147 -588 -167 -627 -19 -36 -38 -45 -110 -53 -68 -8 -94 6 -94 51 0 14
23 244 50 511 53 515 55 524 108 544 30 11 69 -1 78 -25 8 -21 -30 -367 -71
-648 -51 -347 -48 -347 34 -2 64 270 165 626 186 660 29 45 113 56 134 16 12
-22 -10 -406 -39 -676 -11 -110 -19 -206 -17 -215 1 -9 25 94 51 229 59 301
142 647 162 677 32 50 116 44 122 -8z m-1090 -55 c12 -8 22 -26 22 -38 0 -13
-56 -249 -124 -526 -96 -388 -130 -508 -146 -525 -16 -17 -38 -25 -80 -30 -69
-8 -97 -1 -105 25 -12 37 39 590 71 775 3 21 2 25 -4 15 -5 -8 -24 -82 -41
-165 -38 -177 -147 -588 -167 -627 -19 -36 -38 -45 -110 -53 -68 -8 -94 6 -94
51 0 13 23 243 50 511 53 515 55 524 108 544 30 11 69 -1 78 -25 8 -21 -30
-364 -71 -649 -51 -348 -48 -346 39 19 82 338 167 630 193 655 11 11 35 22 55
25 28 5 40 2 58 -16 18 -18 21 -29 16 -68 -3 -26 -8 -110 -11 -187 -4 -77 -18
-250 -31 -384 -14 -134 -23 -251 -22 -260 2 -9 26 94 52 229 52 265 140 640
157 672 6 11 25 26 42 33 40 18 38 18 65 -1z m-840 -81 c15 -11 34 -39 42 -62
13 -38 12 -54 -14 -209 -15 -92 -37 -188 -48 -214 -22 -53 -83 -114 -123 -124
-27 -7 -91 -1 -115 9 -12 6 -20 -22 -44 -167 -16 -96 -26 -182 -23 -190 4 -9
16 -16 27 -16 51 0 70 30 85 130 4 25 13 59 20 76 22 54 115 72 130 24 9 -28
-22 -187 -46 -237 -59 -122 -232 -180 -319 -106 -60 50 -59 56 20 513 46 273
78 430 91 457 24 50 94 115 141 131 51 17 143 9 176 -15z m-445 -44 c12 -19
-157 -1016 -180 -1061 -23 -47 -107 -51 -118 -5 -13 58 -35 301 -42 467 -8
211 -15 205 -38 -35 -8 -88 -26 -222 -39 -298 -28 -168 -46 -194 -128 -188
-43 3 -42 23 47 532 47 270 85 499 85 509 0 31 42 70 80 76 47 7 70 -12 80
-67 10 -50 27 -301 36 -522 3 -82 8 -146 11 -143 2 2 13 125 24 273 25 357 42
446 87 473 25 14 83 8 95 -11z"/>
<path d="M11956 4382 c-2 -4 -34 -179 -70 -387 -37 -209 -69 -392 -72 -407 -5
-26 -3 -28 25 -28 17 0 41 10 55 23 24 20 30 48 91 401 51 291 63 381 54 392
-12 15 -74 19 -83 6z"/>
<path d="M11006 4292 c-4 -7 -66 -348 -66 -364 0 -9 69 8 85 22 20 16 31 56
55 198 17 97 19 126 10 137 -13 16 -75 21 -84 7z"/>
<path d="M10481 4251 c-12 -12 -21 -24 -21 -28 0 -5 -29 -174 -65 -378 -36
-203 -65 -380 -65 -393 0 -41 69 -42 91 -1 14 27 141 755 137 789 -4 34 -48
40 -77 11z"/>
<path d="M8130 4050 c-11 -11 -20 -24 -20 -28 0 -4 -11 -70 -25 -146 -13 -77
-22 -143 -19 -147 3 -5 18 -9 33 -9 50 0 67 32 92 181 12 74 20 143 16 152 -9
23 -53 21 -77 -3z"/>
</g>
</svg>
